<?xml version="1.0" encoding="UTF-8"?>
<svg width="111px" height="43px" viewBox="0 0 111 43" version="1.1" xmlns="http://www.w3.org/2000/svg" xmlns:xlink="http://www.w3.org/1999/xlink">
    <!-- Generator: Sketch 47.1 (45422) - http://www.bohemiancoding.com/sketch -->
    <title>Group 3 Copy</title>
    <desc>Created with Sketch.</desc>
    <defs></defs>
    <g id="Page-1" stroke="none" stroke-width="1" fill="none" fill-rule="evenodd">
        <g id="Group-3-Copy" transform="translate(-2.000000, -6.000000)" fill="#FFFFFF">
            <path d="M34.3632185,-2 L30,2.52453793 C30,2.52453793 40.4913207,9.26224183 40.4913207,16.0002104 C40.4913207,22.738179 30,29.4763038 30,29.4763038 L34.3632185,34 L49.6717808,16.7889112 C49.890728,16.5603816 50,16.297341 50,16.0002104 C50,15.7030798 49.8911312,15.4400393 49.672184,15.2110888 L34.3632185,-2 Z" id="Shape" transform="translate(40.000000, 16.000000) rotate(270.000000) translate(-40.000000, -16.000000) "></path>
            <path d="M7.128,22.584 L7.128,31.08 C7.82400348,30.6959981 8.5619961,30.3960011 9.342,30.18 C10.1220039,29.9639989 10.8239969,29.856 11.448,29.856 C14.0160128,29.856 15.9839932,30.7439911 17.352,32.52 C18.7200068,34.2960089 19.404,36.5039868 19.404,39.144 C19.404,41.7840132 18.702007,43.9919911 17.298,45.768 C15.893993,47.5440089 13.9440125,48.432 11.448,48.432 C10.6319959,48.432 9.72000504,48.2640017 8.712,47.928 C7.70399496,47.5919983 6.80400396,47.124003 6.012,46.524 L4.86,48 L2.484,48 L2.484,22.98 L7.128,22.584 Z M10.224,44.436 C11.832008,44.436 12.9599968,43.8540058 13.608,42.69 C14.2560032,41.5259942 14.58,40.344006 14.58,39.144 C14.58,37.7759932 14.2920029,36.5520054 13.716,35.472 C13.1399971,34.3919946 11.9760088,33.852 10.224,33.852 C9.71999748,33.852 9.1980027,33.9419991 8.658,34.122 C8.1179973,34.3020009 7.6080024,34.5479984 7.128,34.86 L7.128,43.428 C7.6080024,43.7160014 8.1179973,43.955999 8.658,44.148 C9.1980027,44.340001 9.71999748,44.436 10.224,44.436 Z M29.9020001,48.432 C27.1419863,48.432 24.9880078,47.5980083 23.4400001,45.93 C21.8919923,44.2619917 21.1180001,42.024014 21.1180001,39.216 C21.1180001,36.4319861 21.927992,34.2120083 23.5480001,32.556 C25.1680082,30.8999917 27.381986,30.072 30.1900001,30.072 C33.0940146,30.072 35.3439921,30.9299914 36.9400001,32.646 C38.536008,34.3620086 39.3340001,36.6119861 39.3340001,39.396 C39.3340001,42.1800139 38.4700087,44.3819919 36.7420001,46.002 C35.0139914,47.6220081 32.7340142,48.432 29.9020001,48.432 Z M34.5100001,39.396 C34.5100001,37.7399917 34.1440037,36.4380047 33.4120001,35.49 C32.6799964,34.5419953 31.6420068,34.068 30.2980001,34.068 C28.9299932,34.068 27.8620039,34.4879958 27.0940001,35.328 C26.3259962,36.1680042 25.9420001,37.4519914 25.9420001,39.18 C25.9420001,40.9080086 26.2719968,42.2159956 26.9320001,43.104 C27.5920034,43.9920044 28.6059932,44.436 29.9740001,44.436 C31.3180068,44.436 32.4099959,44.034004 33.2500001,43.23 C34.0900043,42.425996 34.5100001,41.1480088 34.5100001,39.396 Z M49.8320001,48.432 C47.0719863,48.432 44.9180079,47.5980083 43.3700001,45.93 C41.8219924,44.2619917 41.0480001,42.024014 41.0480001,39.216 C41.0480001,36.4319861 41.857992,34.2120083 43.4780001,32.556 C45.0980082,30.8999917 47.3119861,30.072 50.1200001,30.072 C53.0240146,30.072 55.2739921,30.9299914 56.8700001,32.646 C58.4660081,34.3620086 59.2640001,36.6119861 59.2640001,39.396 C59.2640001,42.1800139 58.4000088,44.3819919 56.6720001,46.002 C54.9439915,47.6220081 52.6640143,48.432 49.8320001,48.432 Z M54.4400001,39.396 C54.4400001,37.7399917 54.0740038,36.4380047 53.3420001,35.49 C52.6099965,34.5419953 51.5720068,34.068 50.2280001,34.068 C48.8599933,34.068 47.792004,34.4879958 47.0240001,35.328 C46.2559963,36.1680042 45.8720001,37.4519914 45.8720001,39.18 C45.8720001,40.9080086 46.2019968,42.2159956 46.8620001,43.104 C47.5220034,43.9920044 48.5359933,44.436 49.9040001,44.436 C51.2480068,44.436 52.3399959,44.034004 53.1800001,43.23 C54.0200043,42.425996 54.4400001,41.1480088 54.4400001,39.396 Z M71.9580002,35.256 C71.117996,34.8719981 70.3380038,34.578001 69.6180002,34.374 C68.8979966,34.169999 68.1300043,34.068 67.3140002,34.068 C66.7139972,34.068 66.2520018,34.1819989 65.9280002,34.41 C65.6039986,34.6380011 65.4420002,34.955998 65.4420002,35.364 C65.4420002,35.6520014 65.6399982,35.9279987 66.0360002,36.192 C66.4320022,36.4560013 67.0739957,36.7439984 67.9620002,37.056 C69.4260075,37.5840026 70.7819939,38.3219953 72.0300002,39.27 C73.2780064,40.2180047 73.9020002,41.4479924 73.9020002,42.96 C73.9020002,44.6880086 73.2840064,46.0319952 72.0480002,46.992 C70.811994,47.9520048 69.0060121,48.432 66.6300002,48.432 C65.8859965,48.432 64.8960064,48.2880014 63.6600002,48 C62.423994,47.7119986 61.3980043,47.2560031 60.5820002,46.632 L61.9860002,43.248 C62.8260044,43.6320019 63.6359963,43.925999 64.4160002,44.13 C65.1960041,44.334001 65.9099969,44.436 66.5580002,44.436 C67.4220045,44.436 68.0819979,44.3160012 68.5380002,44.076 C68.9940025,43.8359988 69.2220002,43.5240019 69.2220002,43.14 C69.2220002,42.6599976 68.9940025,42.2280019 68.5380002,41.844 C68.0819979,41.4599981 67.3620051,41.1120016 66.3780002,40.8 C64.9859932,40.3439977 63.6720064,39.6900043 62.4360002,38.838 C61.199994,37.9859957 60.5820002,36.8400072 60.5820002,35.4 C60.5820002,33.7439917 61.1939941,32.4420047 62.4180002,31.494 C63.6420063,30.5459953 65.2979897,30.072 67.3860002,30.072 C68.1300039,30.072 69.0899943,30.2279984 70.2660002,30.54 C71.4420061,30.8520016 72.4739957,31.307997 73.3620002,31.908 L71.9580002,35.256 Z M86.7400002,47.64 C86.3559983,47.9520016 85.8100038,48.209999 85.1020002,48.414 C84.3939967,48.618001 83.764003,48.72 83.2120002,48.72 C81.0519894,48.72 79.3540064,48.1740055 78.1180002,47.082 C76.881994,45.9899945 76.2640002,44.4360101 76.2640002,42.42 L76.2640002,34.176 L73.9240002,34.176 L73.9240002,30.576 L76.2640002,30.576 L76.2640002,26.436 L80.9080002,25.608 L80.9080002,30.576 L84.0760002,30.576 L85.5160002,34.176 L80.9080002,34.176 L80.9080002,41.592 C80.9080002,42.5040046 81.1239981,43.2539971 81.5560002,43.842 C81.9880024,44.4300029 82.623996,44.724 83.4640002,44.724 C83.7760018,44.724 84.0879987,44.6880004 84.4000002,44.616 C84.7120018,44.5439996 85.0359985,44.4240008 85.3720002,44.256 L86.7400002,47.64 Z M90.3620003,22.8 C91.106004,22.8 91.7359977,23.0519975 92.2520003,23.556 C92.7680029,24.0600025 93.0260003,24.6839963 93.0260003,25.428 C93.0260003,26.1720037 92.7680029,26.7959975 92.2520003,27.3 C91.7359977,27.8040025 91.106004,28.056 90.3620003,28.056 C89.6419967,28.056 89.0300028,27.8040025 88.5260003,27.3 C88.0219978,26.7959975 87.7700003,26.1720037 87.7700003,25.428 C87.7700003,24.6839963 88.0219978,24.0600025 88.5260003,23.556 C89.0300028,23.0519975 89.6419967,22.8 90.3620003,22.8 Z M92.7020003,30.54 L92.7020003,48 L88.0220003,48 L88.0220003,30.54 L92.7020003,30.54 Z M99.7800003,32.412 C100.572004,31.619996 101.561994,30.9960023 102.75,30.54 C103.938006,30.0839977 104.999996,29.856 105.936,29.856 C108.312012,29.856 109.997995,30.551993 110.994,31.944 C111.990005,33.336007 112.488,35.0399899 112.488,37.056 L112.488,48 L107.808,48 L107.808,37.272 C107.808,36.1679945 107.544003,35.3220029 107.016,34.734 C106.487998,34.1459971 105.720005,33.852 104.712,33.852 C104.039997,33.852 103.338004,34.0259983 102.606,34.374 C101.873997,34.7220017 101.208003,35.1239977 100.608,35.58 L100.608,48 L95.9280003,48 L95.9280003,30.54 L98.3760003,30.54 L99.7800003,32.412 Z" id="boostin"></path>
        </g>
    </g>
</svg>